<mxfile host="app.diagrams.net" modified="2020-08-27T14:20:00.841Z" agent="5.0 (Macintosh; Intel Mac OS X 10_13_6) AppleWebKit/537.36 (KHTML, like Gecko) Chrome/83.0.4103.116 Safari/537.36" etag="p0cISQNFnewDEqJVEaWe" version="13.6.2" type="github">
  <diagram id="z_3OlUZgvgA4r3jRaCpC" name="Page-1">
    <mxGraphModel dx="3702" dy="2530" grid="1" gridSize="10" guides="1" tooltips="1" connect="1" arrows="1" fold="1" page="1" pageScale="1" pageWidth="850" pageHeight="1100" math="0" shadow="0">
      <root>
        <mxCell id="0" />
        <mxCell id="1" parent="0" />
        <mxCell id="u7dwvrxe1WehzBrC3Dti-39" value="" style="rounded=1;whiteSpace=wrap;html=1;" parent="1" vertex="1">
          <mxGeometry x="50" y="160" width="470" height="160" as="geometry" />
        </mxCell>
        <mxCell id="u7dwvrxe1WehzBrC3Dti-1" value="Export API&amp;nbsp;" style="rounded=0;whiteSpace=wrap;html=1;" parent="1" vertex="1">
          <mxGeometry x="80" y="775" width="390" height="50" as="geometry" />
        </mxCell>
        <mxCell id="u7dwvrxe1WehzBrC3Dti-2" value="Message Broker (MB)" style="rounded=0;whiteSpace=wrap;html=1;" parent="1" vertex="1">
          <mxGeometry x="80" y="560" width="390" height="50" as="geometry" />
        </mxCell>
        <mxCell id="u7dwvrxe1WehzBrC3Dti-3" value="Storefront API (SF API)" style="rounded=0;whiteSpace=wrap;html=1;fillColor=#FFFF66;" parent="1" vertex="1">
          <mxGeometry x="80" y="405" width="390" height="70" as="geometry" />
        </mxCell>
        <mxCell id="u7dwvrxe1WehzBrC3Dti-4" value="GraphQL Server (NodeJS)" style="rounded=0;whiteSpace=wrap;html=1;" parent="1" vertex="1">
          <mxGeometry x="80" y="190" width="390" height="50" as="geometry" />
        </mxCell>
        <mxCell id="u7dwvrxe1WehzBrC3Dti-15" value="" style="endArrow=classic;html=1;exitX=0.25;exitY=1;exitDx=0;exitDy=0;entryX=0.25;entryY=0;entryDx=0;entryDy=0;" parent="1" source="u7dwvrxe1WehzBrC3Dti-4" target="u7dwvrxe1WehzBrC3Dti-3" edge="1">
          <mxGeometry width="50" height="50" relative="1" as="geometry">
            <mxPoint x="190" y="370" as="sourcePoint" />
            <mxPoint x="240" y="320" as="targetPoint" />
          </mxGeometry>
        </mxCell>
        <mxCell id="u7dwvrxe1WehzBrC3Dti-16" value="" style="endArrow=classic;html=1;exitX=0.75;exitY=0;exitDx=0;exitDy=0;entryX=0.75;entryY=1;entryDx=0;entryDy=0;" parent="1" source="u7dwvrxe1WehzBrC3Dti-3" target="u7dwvrxe1WehzBrC3Dti-4" edge="1">
          <mxGeometry width="50" height="50" relative="1" as="geometry">
            <mxPoint x="187.5" y="250" as="sourcePoint" />
            <mxPoint x="187.5" y="330" as="targetPoint" />
          </mxGeometry>
        </mxCell>
        <mxCell id="u7dwvrxe1WehzBrC3Dti-17" value="Mapping &lt;b&gt;Request&lt;br&gt;&lt;/b&gt;&lt;br&gt;Convert Query&lt;br&gt;&amp;nbsp;to &quot;proto&quot;&amp;nbsp;" style="text;html=1;align=left;verticalAlign=middle;resizable=0;points=[];autosize=1;" parent="1" vertex="1">
          <mxGeometry x="75" y="248" width="110" height="60" as="geometry" />
        </mxCell>
        <mxCell id="u7dwvrxe1WehzBrC3Dti-18" value="Mapping &lt;b&gt;Response&lt;/b&gt;&lt;br&gt;&lt;br&gt;Convert &quot;proto&quot;-response&lt;br&gt;&amp;nbsp;to GQL schema&amp;nbsp;" style="text;html=1;align=left;verticalAlign=middle;resizable=0;points=[];autosize=1;" parent="1" vertex="1">
          <mxGeometry x="378" y="248" width="150" height="60" as="geometry" />
        </mxCell>
        <mxCell id="u7dwvrxe1WehzBrC3Dti-19" value="Send event" style="text;html=1;align=center;verticalAlign=middle;resizable=0;points=[];autosize=1;" parent="1" vertex="1">
          <mxGeometry x="100" y="725" width="80" height="20" as="geometry" />
        </mxCell>
        <mxCell id="u7dwvrxe1WehzBrC3Dti-20" value="" style="endArrow=classic;html=1;exitX=0.75;exitY=1;exitDx=0;exitDy=0;entryX=0.75;entryY=0;entryDx=0;entryDy=0;" parent="1" source="u7dwvrxe1WehzBrC3Dti-2" target="u7dwvrxe1WehzBrC3Dti-1" edge="1">
          <mxGeometry width="50" height="50" relative="1" as="geometry">
            <mxPoint x="187.5" y="380" as="sourcePoint" />
            <mxPoint x="187.5" y="460" as="targetPoint" />
          </mxGeometry>
        </mxCell>
        <mxCell id="u7dwvrxe1WehzBrC3Dti-21" value="Back request&lt;br&gt;&amp;nbsp;for Data" style="text;html=1;align=center;verticalAlign=middle;resizable=0;points=[];autosize=1;" parent="1" vertex="1">
          <mxGeometry x="370" y="723" width="90" height="30" as="geometry" />
        </mxCell>
        <mxCell id="u7dwvrxe1WehzBrC3Dti-27" value="Shopper" style="shape=umlActor;verticalLabelPosition=bottom;verticalAlign=top;html=1;outlineConnect=0;" parent="1" vertex="1">
          <mxGeometry x="425" y="10" width="30" height="60" as="geometry" />
        </mxCell>
        <mxCell id="u7dwvrxe1WehzBrC3Dti-28" value="" style="endArrow=classic;html=1;entryX=0.926;entryY=0.011;entryDx=0;entryDy=0;entryPerimeter=0;" parent="1" target="u7dwvrxe1WehzBrC3Dti-4" edge="1">
          <mxGeometry width="50" height="50" relative="1" as="geometry">
            <mxPoint x="441" y="90" as="sourcePoint" />
            <mxPoint x="350" y="200" as="targetPoint" />
          </mxGeometry>
        </mxCell>
        <mxCell id="u7dwvrxe1WehzBrC3Dti-29" value="Magento GQL&lt;br&gt;(webonyx)" style="ellipse;whiteSpace=wrap;html=1;" parent="1" vertex="1">
          <mxGeometry x="90" y="10" width="120" height="80" as="geometry" />
        </mxCell>
        <mxCell id="u7dwvrxe1WehzBrC3Dti-30" value="" style="endArrow=classic;startArrow=classic;html=1;entryX=0.5;entryY=1;entryDx=0;entryDy=0;" parent="1" target="u7dwvrxe1WehzBrC3Dti-29" edge="1">
          <mxGeometry width="50" height="50" relative="1" as="geometry">
            <mxPoint x="150" y="190" as="sourcePoint" />
            <mxPoint x="350" y="200" as="targetPoint" />
          </mxGeometry>
        </mxCell>
        <mxCell id="u7dwvrxe1WehzBrC3Dti-31" value="Proxy for&lt;br&gt;deprecated fields &lt;br&gt;&lt;i&gt;&amp;gt; products(type_id)&lt;/i&gt;" style="text;html=1;align=left;verticalAlign=middle;resizable=0;points=[];autosize=1;" parent="1" vertex="1">
          <mxGeometry x="160" y="110" width="120" height="50" as="geometry" />
        </mxCell>
        <mxCell id="u7dwvrxe1WehzBrC3Dti-32" value="&lt;div style=&quot;text-align: left&quot;&gt;&lt;span&gt;GQL Query&lt;/span&gt;&lt;/div&gt;&lt;div style=&quot;text-align: left&quot;&gt;&lt;span&gt;&lt;i&gt;&amp;gt; products(sku, type_id, thumbnail)&lt;/i&gt;&lt;/span&gt;&lt;/div&gt;" style="text;html=1;align=center;verticalAlign=middle;resizable=0;points=[];autosize=1;" parent="1" vertex="1">
          <mxGeometry x="440" y="120" width="200" height="30" as="geometry" />
        </mxCell>
        <mxCell id="u7dwvrxe1WehzBrC3Dti-34" value="&lt;h1&gt;&lt;font style=&quot;font-size: 14px&quot; color=&quot;#330066&quot;&gt;GQL Query&lt;/font&gt;&lt;/h1&gt;&lt;p&gt;&lt;font color=&quot;#4c0099&quot;&gt;&amp;nbsp; products(filter: { ...}) {&lt;br&gt;&lt;/font&gt;&lt;span style=&quot;color: rgb(76 , 0 , 153)&quot;&gt;&amp;nbsp; &amp;nbsp; items {&lt;br&gt;&lt;/span&gt;&lt;span style=&quot;color: rgb(76 , 0 , 153)&quot;&gt;&amp;nbsp; &amp;nbsp; &amp;nbsp; &amp;nbsp;sku&lt;br&gt;&amp;nbsp; &amp;nbsp; &amp;nbsp; &amp;nbsp;thumbnail&lt;br&gt;&lt;/span&gt;&lt;font color=&quot;#4c0099&quot;&gt;&amp;nbsp; &amp;nbsp; &amp;nbsp; &amp;nbsp;type_id&amp;nbsp;&lt;/font&gt;&lt;span&gt;&amp;nbsp;//deprecated&lt;br&gt;&lt;/span&gt;&lt;span style=&quot;color: rgb(76 , 0 , 153)&quot;&gt;&amp;nbsp; &amp;nbsp; &amp;nbsp; }&lt;br&gt;&amp;nbsp; }&amp;nbsp;&lt;/span&gt;&lt;/p&gt;" style="text;html=1;strokeColor=none;fillColor=none;spacing=5;spacingTop=-20;whiteSpace=wrap;overflow=hidden;rounded=0;" parent="1" vertex="1">
          <mxGeometry x="650" width="260" height="230" as="geometry" />
        </mxCell>
        <mxCell id="u7dwvrxe1WehzBrC3Dti-44" value="Magento&amp;nbsp;&lt;br&gt;Backoffice" style="ellipse;whiteSpace=wrap;html=1;" parent="1" vertex="1">
          <mxGeometry x="215" y="905" width="120" height="80" as="geometry" />
        </mxCell>
        <mxCell id="u7dwvrxe1WehzBrC3Dti-47" value="" style="group" parent="1" vertex="1" connectable="0">
          <mxGeometry x="275" y="855" width="90" height="20" as="geometry" />
        </mxCell>
        <mxCell id="u7dwvrxe1WehzBrC3Dti-45" value="" style="endArrow=classic;html=1;entryX=0.5;entryY=1;entryDx=0;entryDy=0;exitX=0.5;exitY=0;exitDx=0;exitDy=0;" parent="u7dwvrxe1WehzBrC3Dti-47" source="u7dwvrxe1WehzBrC3Dti-44" target="u7dwvrxe1WehzBrC3Dti-1" edge="1">
          <mxGeometry width="50" height="50" relative="1" as="geometry">
            <mxPoint x="-45" y="30" as="sourcePoint" />
            <mxPoint x="5" y="-20" as="targetPoint" />
          </mxGeometry>
        </mxCell>
        <mxCell id="u7dwvrxe1WehzBrC3Dti-46" value="Save Product" style="text;html=1;align=center;verticalAlign=middle;resizable=0;points=[];autosize=1;" parent="u7dwvrxe1WehzBrC3Dti-47" vertex="1">
          <mxGeometry width="90" height="20" as="geometry" />
        </mxCell>
        <mxCell id="u7dwvrxe1WehzBrC3Dti-48" value="" style="shape=cylinder2;whiteSpace=wrap;html=1;boundedLbl=1;backgroundOutline=1;size=15;fillColor=#CCCCCC;" parent="1" vertex="1">
          <mxGeometry x="407.5" y="410" width="52.5" height="60" as="geometry" />
        </mxCell>
        <mxCell id="u7dwvrxe1WehzBrC3Dti-12" style="edgeStyle=orthogonalEdgeStyle;rounded=0;orthogonalLoop=1;jettySize=auto;html=1;exitX=0.5;exitY=0;exitDx=0;exitDy=0;entryX=0.5;entryY=1;entryDx=0;entryDy=0;" parent="1" source="u7dwvrxe1WehzBrC3Dti-2" target="u7dwvrxe1WehzBrC3Dti-3" edge="1">
          <mxGeometry relative="1" as="geometry">
            <mxPoint x="269.7866666666667" y="509.85074626865674" as="sourcePoint" />
            <mxPoint x="270" y="480" as="targetPoint" />
          </mxGeometry>
        </mxCell>
        <mxCell id="u7dwvrxe1WehzBrC3Dti-54" value="" style="group" parent="1" vertex="1" connectable="0">
          <mxGeometry x="30" y="349.9999999999999" width="600" height="40.000000000000114" as="geometry" />
        </mxCell>
        <mxCell id="u7dwvrxe1WehzBrC3Dti-51" value="&lt;span style=&quot;color: rgb(0 , 0 , 0) ; font-family: &amp;#34;helvetica&amp;#34; ; font-size: 12px ; font-style: normal ; font-weight: 400 ; letter-spacing: normal ; text-align: left ; text-indent: 0px ; text-transform: none ; word-spacing: 0px ; background-color: rgb(248 , 249 , 250) ; display: inline ; float: none&quot;&gt;Over&amp;nbsp;&lt;/span&gt;&lt;br style=&quot;color: rgb(0 , 0 , 0) ; font-family: &amp;#34;helvetica&amp;#34; ; font-size: 12px ; font-style: normal ; font-weight: 400 ; letter-spacing: normal ; text-align: left ; text-indent: 0px ; text-transform: none ; word-spacing: 0px&quot;&gt;&lt;span style=&quot;color: rgb(0 , 0 , 0) ; font-family: &amp;#34;helvetica&amp;#34; ; font-size: 12px ; font-style: normal ; font-weight: 400 ; letter-spacing: normal ; text-align: left ; text-indent: 0px ; text-transform: none ; word-spacing: 0px ; background-color: rgb(248 , 249 , 250) ; display: inline ; float: none&quot;&gt;gRPC&lt;/span&gt;" style="text;whiteSpace=wrap;html=1;" parent="u7dwvrxe1WehzBrC3Dti-54" vertex="1">
          <mxGeometry x="540" y="1.1368683772161603e-13" width="60" height="40" as="geometry" />
        </mxCell>
        <mxCell id="u7dwvrxe1WehzBrC3Dti-52" value="" style="endArrow=none;dashed=1;html=1;dashPattern=1 3;strokeWidth=2;entryX=0.5;entryY=0;entryDx=0;entryDy=0;" parent="u7dwvrxe1WehzBrC3Dti-54" target="u7dwvrxe1WehzBrC3Dti-51" edge="1">
          <mxGeometry width="50" height="50" relative="1" as="geometry">
            <mxPoint as="sourcePoint" />
            <mxPoint x="560" y="-9.999999999999886" as="targetPoint" />
          </mxGeometry>
        </mxCell>
        <mxCell id="u7dwvrxe1WehzBrC3Dti-63" value="&amp;gt; Request(sku, images)&lt;br&gt;&lt;i style=&quot;text-align: left&quot;&gt;thumbnail &amp;gt;&amp;gt; images&lt;/i&gt;" style="text;html=1;align=center;verticalAlign=middle;resizable=0;points=[];autosize=1;" parent="u7dwvrxe1WehzBrC3Dti-54" vertex="1">
          <mxGeometry x="10" y="15.000000000000114" width="140" height="30" as="geometry" />
        </mxCell>
        <mxCell id="u7dwvrxe1WehzBrC3Dti-64" value="&amp;gt; Response({sku: &quot;&quot;, images: []})&lt;br&gt;" style="text;html=1;align=center;verticalAlign=middle;resizable=0;points=[];autosize=1;" parent="u7dwvrxe1WehzBrC3Dti-54" vertex="1">
          <mxGeometry x="340" y="20.000000000000114" width="190" height="20" as="geometry" />
        </mxCell>
        <mxCell id="u7dwvrxe1WehzBrC3Dti-55" value="" style="group" parent="1" vertex="1" connectable="0">
          <mxGeometry x="30" y="509.9999999999999" width="600" height="40.000000000000114" as="geometry" />
        </mxCell>
        <mxCell id="u7dwvrxe1WehzBrC3Dti-56" value="&lt;span style=&quot;color: rgb(0 , 0 , 0) ; font-family: &amp;#34;helvetica&amp;#34; ; font-size: 12px ; font-style: normal ; font-weight: 400 ; letter-spacing: normal ; text-align: left ; text-indent: 0px ; text-transform: none ; word-spacing: 0px ; background-color: rgb(248 , 249 , 250) ; display: inline ; float: none&quot;&gt;Over&amp;nbsp;&lt;/span&gt;&lt;br style=&quot;color: rgb(0 , 0 , 0) ; font-family: &amp;#34;helvetica&amp;#34; ; font-size: 12px ; font-style: normal ; font-weight: 400 ; letter-spacing: normal ; text-align: left ; text-indent: 0px ; text-transform: none ; word-spacing: 0px&quot;&gt;&lt;span style=&quot;color: rgb(0 , 0 , 0) ; font-family: &amp;#34;helvetica&amp;#34; ; font-size: 12px ; font-style: normal ; font-weight: 400 ; letter-spacing: normal ; text-align: left ; text-indent: 0px ; text-transform: none ; word-spacing: 0px ; background-color: rgb(248 , 249 , 250) ; display: inline ; float: none&quot;&gt;gRPC&lt;/span&gt;" style="text;whiteSpace=wrap;html=1;" parent="u7dwvrxe1WehzBrC3Dti-55" vertex="1">
          <mxGeometry x="540" width="60" height="40" as="geometry" />
        </mxCell>
        <mxCell id="u7dwvrxe1WehzBrC3Dti-57" value="" style="endArrow=none;dashed=1;html=1;dashPattern=1 3;strokeWidth=2;entryX=0.5;entryY=0;entryDx=0;entryDy=0;" parent="u7dwvrxe1WehzBrC3Dti-55" target="u7dwvrxe1WehzBrC3Dti-56" edge="1">
          <mxGeometry width="50" height="50" relative="1" as="geometry">
            <mxPoint as="sourcePoint" />
            <mxPoint x="560" y="-9.999999999999886" as="targetPoint" />
          </mxGeometry>
        </mxCell>
        <mxCell id="u7dwvrxe1WehzBrC3Dti-42" value="" style="group" parent="u7dwvrxe1WehzBrC3Dti-55" vertex="1" connectable="0">
          <mxGeometry x="240" y="-19.999999999999886" width="80" height="52.61194029850746" as="geometry" />
        </mxCell>
        <mxCell id="u7dwvrxe1WehzBrC3Dti-22" value="Save to SF&lt;br&gt;" style="text;html=1;align=center;verticalAlign=middle;resizable=0;points=[];autosize=1;" parent="u7dwvrxe1WehzBrC3Dti-42" vertex="1">
          <mxGeometry x="5.333333333333334" y="32.61194029850746" width="70" height="20" as="geometry" />
        </mxCell>
        <mxCell id="u7dwvrxe1WehzBrC3Dti-58" value="" style="group" parent="1" vertex="1" connectable="0">
          <mxGeometry x="30" y="649.9999999999999" width="600" height="40.000000000000114" as="geometry" />
        </mxCell>
        <mxCell id="u7dwvrxe1WehzBrC3Dti-59" value="&lt;span style=&quot;color: rgb(0 , 0 , 0) ; font-family: &amp;#34;helvetica&amp;#34; ; font-size: 12px ; font-style: normal ; font-weight: 400 ; letter-spacing: normal ; text-align: left ; text-indent: 0px ; text-transform: none ; word-spacing: 0px ; background-color: rgb(248 , 249 , 250) ; display: inline ; float: none&quot;&gt;Over&amp;nbsp;&lt;/span&gt;&lt;br style=&quot;color: rgb(0 , 0 , 0) ; font-family: &amp;#34;helvetica&amp;#34; ; font-size: 12px ; font-style: normal ; font-weight: 400 ; letter-spacing: normal ; text-align: left ; text-indent: 0px ; text-transform: none ; word-spacing: 0px&quot;&gt;&lt;span style=&quot;color: rgb(0 , 0 , 0) ; font-family: &amp;#34;helvetica&amp;#34; ; font-size: 12px ; font-style: normal ; font-weight: 400 ; letter-spacing: normal ; text-align: left ; text-indent: 0px ; text-transform: none ; word-spacing: 0px ; background-color: rgb(248 , 249 , 250) ; display: inline ; float: none&quot;&gt;REST&lt;/span&gt;" style="text;whiteSpace=wrap;html=1;" parent="u7dwvrxe1WehzBrC3Dti-58" vertex="1">
          <mxGeometry x="540" width="60" height="40" as="geometry" />
        </mxCell>
        <mxCell id="u7dwvrxe1WehzBrC3Dti-60" value="" style="endArrow=none;dashed=1;html=1;dashPattern=1 3;strokeWidth=2;entryX=0.5;entryY=0;entryDx=0;entryDy=0;" parent="u7dwvrxe1WehzBrC3Dti-58" target="u7dwvrxe1WehzBrC3Dti-59" edge="1">
          <mxGeometry width="50" height="50" relative="1" as="geometry">
            <mxPoint as="sourcePoint" />
            <mxPoint x="560" y="-9.999999999999886" as="targetPoint" />
          </mxGeometry>
        </mxCell>
        <mxCell id="u7dwvrxe1WehzBrC3Dti-61" value="" style="group" parent="u7dwvrxe1WehzBrC3Dti-58" vertex="1" connectable="0">
          <mxGeometry x="240" y="-19.999999999999886" width="80" height="52.61194029850746" as="geometry" />
        </mxCell>
        <mxCell id="u7dwvrxe1WehzBrC3Dti-62" value="Save to SF&lt;br&gt;" style="text;html=1;align=center;verticalAlign=middle;resizable=0;points=[];autosize=1;" parent="u7dwvrxe1WehzBrC3Dti-61" vertex="1">
          <mxGeometry x="5.333333333333334" y="32.61194029850746" width="70" height="20" as="geometry" />
        </mxCell>
        <mxCell id="u7dwvrxe1WehzBrC3Dti-65" value="&lt;ul&gt;&lt;li&gt;Read API&amp;nbsp;&lt;/li&gt;&lt;li&gt;Import API&lt;/li&gt;&lt;li&gt;Delete API&lt;/li&gt;&lt;/ul&gt;" style="text;strokeColor=none;fillColor=none;html=1;whiteSpace=wrap;verticalAlign=middle;overflow=hidden;" parent="1" vertex="1">
          <mxGeometry x="65" y="400" width="105" height="80" as="geometry" />
        </mxCell>
        <mxCell id="u7dwvrxe1WehzBrC3Dti-68" value="" style="group" parent="1" vertex="1" connectable="0">
          <mxGeometry x="117" y="670" width="120" height="40" as="geometry" />
        </mxCell>
        <mxCell id="u7dwvrxe1WehzBrC3Dti-66" value="" style="shape=cylinder2;whiteSpace=wrap;html=1;boundedLbl=1;backgroundOutline=1;size=15;fillColor=#FFFFFF;rotation=90;" parent="u7dwvrxe1WehzBrC3Dti-68" vertex="1">
          <mxGeometry x="40" y="-40" width="40" height="120" as="geometry" />
        </mxCell>
        <mxCell id="u7dwvrxe1WehzBrC3Dti-67" value="&lt;meta charset=&quot;utf-8&quot;&gt;&lt;span style=&quot;color: rgb(0, 0, 0); font-family: helvetica; font-size: 12px; font-style: normal; font-weight: 400; letter-spacing: normal; text-align: center; text-indent: 0px; text-transform: none; word-spacing: 0px; background-color: rgb(255, 255, 255); display: inline; float: none;&quot;&gt;Queue&lt;/span&gt;" style="text;whiteSpace=wrap;html=1;" parent="u7dwvrxe1WehzBrC3Dti-68" vertex="1">
          <mxGeometry x="30" y="5" width="60" height="30" as="geometry" />
        </mxCell>
        <mxCell id="u7dwvrxe1WehzBrC3Dti-69" value="" style="endArrow=classic;html=1;entryX=0.5;entryY=1;entryDx=0;entryDy=0;exitX=0.25;exitY=0;exitDx=0;exitDy=0;" parent="1" source="u7dwvrxe1WehzBrC3Dti-1" target="u7dwvrxe1WehzBrC3Dti-67" edge="1">
          <mxGeometry width="50" height="50" relative="1" as="geometry">
            <mxPoint x="230" y="740" as="sourcePoint" />
            <mxPoint x="280" y="690" as="targetPoint" />
          </mxGeometry>
        </mxCell>
        <mxCell id="u7dwvrxe1WehzBrC3Dti-70" value="" style="endArrow=classic;html=1;entryX=0.5;entryY=0;entryDx=0;entryDy=0;exitX=0.25;exitY=1;exitDx=0;exitDy=0;" parent="1" source="u7dwvrxe1WehzBrC3Dti-2" target="u7dwvrxe1WehzBrC3Dti-67" edge="1">
          <mxGeometry width="50" height="50" relative="1" as="geometry">
            <mxPoint x="187.5" y="785" as="sourcePoint" />
            <mxPoint x="187" y="715" as="targetPoint" />
          </mxGeometry>
        </mxCell>
        <mxCell id="u7dwvrxe1WehzBrC3Dti-71" value="" style="shape=curlyBracket;whiteSpace=wrap;html=1;rounded=1;fillColor=#FFFFFF;direction=west;" parent="1" vertex="1">
          <mxGeometry x="810" y="80" width="20" height="280" as="geometry" />
        </mxCell>
        <mxCell id="u7dwvrxe1WehzBrC3Dti-72" value="" style="shape=curlyBracket;whiteSpace=wrap;html=1;rounded=1;fillColor=#FFFFFF;direction=west;" parent="1" vertex="1">
          <mxGeometry x="810" y="400" width="20" height="440" as="geometry" />
        </mxCell>
        <mxCell id="OfhyGZPmbudF-7aOh3mg-1" value="" style="rounded=1;whiteSpace=wrap;html=1;" vertex="1" parent="1">
          <mxGeometry x="20" y="-920" width="470" height="160" as="geometry" />
        </mxCell>
        <mxCell id="OfhyGZPmbudF-7aOh3mg-2" value="Export API&amp;nbsp;" style="rounded=0;whiteSpace=wrap;html=1;" vertex="1" parent="1">
          <mxGeometry x="50" y="-305" width="390" height="50" as="geometry" />
        </mxCell>
        <mxCell id="OfhyGZPmbudF-7aOh3mg-3" value="Message Broker (MB)" style="rounded=0;whiteSpace=wrap;html=1;" vertex="1" parent="1">
          <mxGeometry x="50" y="-520" width="390" height="50" as="geometry" />
        </mxCell>
        <mxCell id="OfhyGZPmbudF-7aOh3mg-4" value="Storefront API (SF API)" style="rounded=0;whiteSpace=wrap;html=1;fillColor=#FFFF66;" vertex="1" parent="1">
          <mxGeometry x="50" y="-675" width="390" height="70" as="geometry" />
        </mxCell>
        <mxCell id="OfhyGZPmbudF-7aOh3mg-5" value="GraphQL Server (NodeJS)" style="rounded=0;whiteSpace=wrap;html=1;fillColor=#66FF66;" vertex="1" parent="1">
          <mxGeometry x="50" y="-890" width="390" height="50" as="geometry" />
        </mxCell>
        <mxCell id="OfhyGZPmbudF-7aOh3mg-6" value="" style="endArrow=classic;html=1;exitX=0.25;exitY=1;exitDx=0;exitDy=0;entryX=0.25;entryY=0;entryDx=0;entryDy=0;" edge="1" parent="1" source="OfhyGZPmbudF-7aOh3mg-5" target="OfhyGZPmbudF-7aOh3mg-4">
          <mxGeometry width="50" height="50" relative="1" as="geometry">
            <mxPoint x="160" y="-710" as="sourcePoint" />
            <mxPoint x="210" y="-760" as="targetPoint" />
          </mxGeometry>
        </mxCell>
        <mxCell id="OfhyGZPmbudF-7aOh3mg-7" value="" style="endArrow=classic;html=1;exitX=0.75;exitY=0;exitDx=0;exitDy=0;entryX=0.75;entryY=1;entryDx=0;entryDy=0;" edge="1" parent="1" source="OfhyGZPmbudF-7aOh3mg-4" target="OfhyGZPmbudF-7aOh3mg-5">
          <mxGeometry width="50" height="50" relative="1" as="geometry">
            <mxPoint x="157.5" y="-830" as="sourcePoint" />
            <mxPoint x="157.5" y="-750" as="targetPoint" />
          </mxGeometry>
        </mxCell>
        <mxCell id="OfhyGZPmbudF-7aOh3mg-8" value="Mapping &lt;b&gt;Request&lt;br&gt;&lt;/b&gt;&lt;br&gt;Convert Query&lt;br&gt;&amp;nbsp;to &quot;proto&quot;&amp;nbsp;" style="text;html=1;align=left;verticalAlign=middle;resizable=0;points=[];autosize=1;" vertex="1" parent="1">
          <mxGeometry x="45" y="-832" width="110" height="60" as="geometry" />
        </mxCell>
        <mxCell id="OfhyGZPmbudF-7aOh3mg-9" value="Mapping &lt;b&gt;Response&lt;/b&gt;&lt;br&gt;&lt;br&gt;Convert &quot;proto&quot;-response&lt;br&gt;&amp;nbsp;to GQL schema&amp;nbsp;" style="text;html=1;align=left;verticalAlign=middle;resizable=0;points=[];autosize=1;" vertex="1" parent="1">
          <mxGeometry x="348" y="-832" width="150" height="60" as="geometry" />
        </mxCell>
        <mxCell id="OfhyGZPmbudF-7aOh3mg-10" value="Send event" style="text;html=1;align=center;verticalAlign=middle;resizable=0;points=[];autosize=1;" vertex="1" parent="1">
          <mxGeometry x="70" y="-355" width="80" height="20" as="geometry" />
        </mxCell>
        <mxCell id="OfhyGZPmbudF-7aOh3mg-11" value="" style="endArrow=classic;html=1;exitX=0.75;exitY=1;exitDx=0;exitDy=0;entryX=0.75;entryY=0;entryDx=0;entryDy=0;" edge="1" parent="1" source="OfhyGZPmbudF-7aOh3mg-3" target="OfhyGZPmbudF-7aOh3mg-2">
          <mxGeometry width="50" height="50" relative="1" as="geometry">
            <mxPoint x="157.5" y="-700" as="sourcePoint" />
            <mxPoint x="157.5" y="-620" as="targetPoint" />
          </mxGeometry>
        </mxCell>
        <mxCell id="OfhyGZPmbudF-7aOh3mg-12" value="Back request&lt;br&gt;&amp;nbsp;for Data" style="text;html=1;align=center;verticalAlign=middle;resizable=0;points=[];autosize=1;" vertex="1" parent="1">
          <mxGeometry x="340" y="-357" width="90" height="30" as="geometry" />
        </mxCell>
        <mxCell id="OfhyGZPmbudF-7aOh3mg-13" value="Shopper" style="shape=umlActor;verticalLabelPosition=bottom;verticalAlign=top;html=1;outlineConnect=0;" vertex="1" parent="1">
          <mxGeometry x="395" y="-1070" width="30" height="60" as="geometry" />
        </mxCell>
        <mxCell id="OfhyGZPmbudF-7aOh3mg-14" value="" style="endArrow=classic;html=1;entryX=0.926;entryY=0.011;entryDx=0;entryDy=0;entryPerimeter=0;" edge="1" parent="1" target="OfhyGZPmbudF-7aOh3mg-5">
          <mxGeometry width="50" height="50" relative="1" as="geometry">
            <mxPoint x="411" y="-990" as="sourcePoint" />
            <mxPoint x="320" y="-880" as="targetPoint" />
          </mxGeometry>
        </mxCell>
        <mxCell id="OfhyGZPmbudF-7aOh3mg-15" value="Magento GQL&lt;br&gt;(webonyx)" style="ellipse;whiteSpace=wrap;html=1;" vertex="1" parent="1">
          <mxGeometry x="60" y="-1070" width="120" height="80" as="geometry" />
        </mxCell>
        <mxCell id="OfhyGZPmbudF-7aOh3mg-16" value="" style="endArrow=classic;startArrow=classic;html=1;entryX=0.5;entryY=1;entryDx=0;entryDy=0;" edge="1" parent="1" target="OfhyGZPmbudF-7aOh3mg-15">
          <mxGeometry width="50" height="50" relative="1" as="geometry">
            <mxPoint x="120" y="-890" as="sourcePoint" />
            <mxPoint x="320" y="-880" as="targetPoint" />
          </mxGeometry>
        </mxCell>
        <mxCell id="OfhyGZPmbudF-7aOh3mg-17" value="Proxy for&lt;br&gt;deprecated fields &lt;br&gt;" style="text;html=1;align=left;verticalAlign=middle;resizable=0;points=[];autosize=1;" vertex="1" parent="1">
          <mxGeometry x="130" y="-960" width="110" height="30" as="geometry" />
        </mxCell>
        <mxCell id="OfhyGZPmbudF-7aOh3mg-18" value="&lt;div style=&quot;text-align: left&quot;&gt;&lt;span&gt;GQL Query&lt;/span&gt;&lt;/div&gt;&lt;div style=&quot;text-align: left&quot;&gt;&lt;br&gt;&lt;/div&gt;" style="text;html=1;align=center;verticalAlign=middle;resizable=0;points=[];autosize=1;" vertex="1" parent="1">
          <mxGeometry x="418" y="-970" width="80" height="30" as="geometry" />
        </mxCell>
        <mxCell id="OfhyGZPmbudF-7aOh3mg-20" value="Magento&amp;nbsp;&lt;br&gt;Backoffice" style="ellipse;whiteSpace=wrap;html=1;" vertex="1" parent="1">
          <mxGeometry x="185" y="-175" width="120" height="80" as="geometry" />
        </mxCell>
        <mxCell id="OfhyGZPmbudF-7aOh3mg-21" value="" style="group" vertex="1" connectable="0" parent="1">
          <mxGeometry x="245" y="-225" width="90" height="20" as="geometry" />
        </mxCell>
        <mxCell id="OfhyGZPmbudF-7aOh3mg-22" value="" style="endArrow=classic;html=1;entryX=0.5;entryY=1;entryDx=0;entryDy=0;exitX=0.5;exitY=0;exitDx=0;exitDy=0;" edge="1" parent="OfhyGZPmbudF-7aOh3mg-21" source="OfhyGZPmbudF-7aOh3mg-20" target="OfhyGZPmbudF-7aOh3mg-2">
          <mxGeometry width="50" height="50" relative="1" as="geometry">
            <mxPoint x="-45" y="30" as="sourcePoint" />
            <mxPoint x="5" y="-20" as="targetPoint" />
          </mxGeometry>
        </mxCell>
        <mxCell id="OfhyGZPmbudF-7aOh3mg-23" value="Save Product" style="text;html=1;align=center;verticalAlign=middle;resizable=0;points=[];autosize=1;" vertex="1" parent="OfhyGZPmbudF-7aOh3mg-21">
          <mxGeometry width="90" height="20" as="geometry" />
        </mxCell>
        <mxCell id="OfhyGZPmbudF-7aOh3mg-24" value="" style="shape=cylinder2;whiteSpace=wrap;html=1;boundedLbl=1;backgroundOutline=1;size=15;fillColor=#CCCCCC;" vertex="1" parent="1">
          <mxGeometry x="377.5" y="-670" width="52.5" height="60" as="geometry" />
        </mxCell>
        <mxCell id="OfhyGZPmbudF-7aOh3mg-25" style="edgeStyle=orthogonalEdgeStyle;rounded=0;orthogonalLoop=1;jettySize=auto;html=1;exitX=0.5;exitY=0;exitDx=0;exitDy=0;entryX=0.5;entryY=1;entryDx=0;entryDy=0;" edge="1" parent="1" source="OfhyGZPmbudF-7aOh3mg-3" target="OfhyGZPmbudF-7aOh3mg-4">
          <mxGeometry relative="1" as="geometry">
            <mxPoint x="239.7866666666667" y="-570.1492537313433" as="sourcePoint" />
            <mxPoint x="240" y="-600" as="targetPoint" />
          </mxGeometry>
        </mxCell>
        <mxCell id="OfhyGZPmbudF-7aOh3mg-31" value="" style="group" vertex="1" connectable="0" parent="1">
          <mxGeometry y="-570.0000000000001" width="600" height="40.000000000000114" as="geometry" />
        </mxCell>
        <mxCell id="OfhyGZPmbudF-7aOh3mg-34" value="" style="group" vertex="1" connectable="0" parent="OfhyGZPmbudF-7aOh3mg-31">
          <mxGeometry x="240" y="-19.999999999999886" width="80" height="52.61194029850746" as="geometry" />
        </mxCell>
        <mxCell id="OfhyGZPmbudF-7aOh3mg-35" value="Save to SF&lt;br&gt;" style="text;html=1;align=center;verticalAlign=middle;resizable=0;points=[];autosize=1;" vertex="1" parent="OfhyGZPmbudF-7aOh3mg-34">
          <mxGeometry x="5.333333333333334" y="32.61194029850746" width="70" height="20" as="geometry" />
        </mxCell>
        <mxCell id="OfhyGZPmbudF-7aOh3mg-36" value="" style="group" vertex="1" connectable="0" parent="1">
          <mxGeometry y="-430.0000000000001" width="640" height="40.000000000000114" as="geometry" />
        </mxCell>
        <mxCell id="OfhyGZPmbudF-7aOh3mg-37" value="&lt;font face=&quot;helvetica&quot;&gt;&lt;b&gt;Integration Tests&lt;/b&gt;&lt;/font&gt;" style="text;whiteSpace=wrap;html=1;" vertex="1" parent="OfhyGZPmbudF-7aOh3mg-36">
          <mxGeometry x="540" width="100" height="40" as="geometry" />
        </mxCell>
        <mxCell id="OfhyGZPmbudF-7aOh3mg-38" value="" style="endArrow=none;dashed=1;html=1;dashPattern=1 3;strokeWidth=2;entryX=1;entryY=0;entryDx=0;entryDy=0;" edge="1" parent="OfhyGZPmbudF-7aOh3mg-36" target="OfhyGZPmbudF-7aOh3mg-37">
          <mxGeometry width="50" height="50" relative="1" as="geometry">
            <mxPoint as="sourcePoint" />
            <mxPoint x="560" y="-9.999999999999886" as="targetPoint" />
          </mxGeometry>
        </mxCell>
        <mxCell id="OfhyGZPmbudF-7aOh3mg-39" value="" style="group" vertex="1" connectable="0" parent="OfhyGZPmbudF-7aOh3mg-36">
          <mxGeometry x="240" y="-19.999999999999886" width="80" height="52.61194029850746" as="geometry" />
        </mxCell>
        <mxCell id="OfhyGZPmbudF-7aOh3mg-40" value="Save to SF&lt;br&gt;" style="text;html=1;align=center;verticalAlign=middle;resizable=0;points=[];autosize=1;" vertex="1" parent="OfhyGZPmbudF-7aOh3mg-39">
          <mxGeometry x="5.333333333333334" y="32.61194029850746" width="70" height="20" as="geometry" />
        </mxCell>
        <mxCell id="OfhyGZPmbudF-7aOh3mg-41" value="&lt;ul&gt;&lt;li&gt;Read API&amp;nbsp;&lt;/li&gt;&lt;li&gt;Import API&lt;/li&gt;&lt;li&gt;Delete API&lt;/li&gt;&lt;/ul&gt;" style="text;strokeColor=none;fillColor=none;html=1;whiteSpace=wrap;verticalAlign=middle;overflow=hidden;" vertex="1" parent="1">
          <mxGeometry x="35" y="-680" width="105" height="80" as="geometry" />
        </mxCell>
        <mxCell id="OfhyGZPmbudF-7aOh3mg-42" value="" style="group" vertex="1" connectable="0" parent="1">
          <mxGeometry x="87" y="-410" width="120" height="40" as="geometry" />
        </mxCell>
        <mxCell id="OfhyGZPmbudF-7aOh3mg-43" value="" style="shape=cylinder2;whiteSpace=wrap;html=1;boundedLbl=1;backgroundOutline=1;size=15;fillColor=#FFFFFF;rotation=90;" vertex="1" parent="OfhyGZPmbudF-7aOh3mg-42">
          <mxGeometry x="40" y="-40" width="40" height="120" as="geometry" />
        </mxCell>
        <mxCell id="OfhyGZPmbudF-7aOh3mg-44" value="&lt;meta charset=&quot;utf-8&quot;&gt;&lt;span style=&quot;color: rgb(0, 0, 0); font-family: helvetica; font-size: 12px; font-style: normal; font-weight: 400; letter-spacing: normal; text-align: center; text-indent: 0px; text-transform: none; word-spacing: 0px; background-color: rgb(255, 255, 255); display: inline; float: none;&quot;&gt;Queue&lt;/span&gt;" style="text;whiteSpace=wrap;html=1;" vertex="1" parent="OfhyGZPmbudF-7aOh3mg-42">
          <mxGeometry x="30" y="5" width="60" height="30" as="geometry" />
        </mxCell>
        <mxCell id="OfhyGZPmbudF-7aOh3mg-45" value="" style="endArrow=classic;html=1;entryX=0.5;entryY=1;entryDx=0;entryDy=0;exitX=0.25;exitY=0;exitDx=0;exitDy=0;" edge="1" parent="1" source="OfhyGZPmbudF-7aOh3mg-2" target="OfhyGZPmbudF-7aOh3mg-44">
          <mxGeometry width="50" height="50" relative="1" as="geometry">
            <mxPoint x="200" y="-340" as="sourcePoint" />
            <mxPoint x="250" y="-390" as="targetPoint" />
          </mxGeometry>
        </mxCell>
        <mxCell id="OfhyGZPmbudF-7aOh3mg-46" value="" style="endArrow=classic;html=1;entryX=0.5;entryY=0;entryDx=0;entryDy=0;exitX=0.25;exitY=1;exitDx=0;exitDy=0;" edge="1" parent="1" source="OfhyGZPmbudF-7aOh3mg-3" target="OfhyGZPmbudF-7aOh3mg-44">
          <mxGeometry width="50" height="50" relative="1" as="geometry">
            <mxPoint x="157.5" y="-295" as="sourcePoint" />
            <mxPoint x="157" y="-365" as="targetPoint" />
          </mxGeometry>
        </mxCell>
        <mxCell id="OfhyGZPmbudF-7aOh3mg-47" value="" style="shape=curlyBracket;whiteSpace=wrap;html=1;rounded=1;fillColor=#FFFFFF;direction=west;" vertex="1" parent="1">
          <mxGeometry x="690" y="-980" width="20" height="280" as="geometry" />
        </mxCell>
        <mxCell id="OfhyGZPmbudF-7aOh3mg-48" value="" style="shape=curlyBracket;whiteSpace=wrap;html=1;rounded=1;fillColor=#FFFFFF;direction=west;" vertex="1" parent="1">
          <mxGeometry x="690" y="-670" width="20" height="440" as="geometry" />
        </mxCell>
        <mxCell id="OfhyGZPmbudF-7aOh3mg-49" value="&lt;font face=&quot;helvetica&quot;&gt;&lt;b&gt;WebAPI Tests&lt;/b&gt;&lt;/font&gt;" style="text;whiteSpace=wrap;html=1;" vertex="1" parent="1">
          <mxGeometry x="560" y="-980.0000000000001" width="120" height="40" as="geometry" />
        </mxCell>
        <mxCell id="OfhyGZPmbudF-7aOh3mg-50" value="" style="endArrow=none;dashed=1;html=1;dashPattern=1 3;strokeWidth=2;entryX=0.75;entryY=0;entryDx=0;entryDy=0;" edge="1" parent="1" target="OfhyGZPmbudF-7aOh3mg-49">
          <mxGeometry width="50" height="50" relative="1" as="geometry">
            <mxPoint x="20" y="-980" as="sourcePoint" />
            <mxPoint x="580" y="-259.9999999999999" as="targetPoint" />
          </mxGeometry>
        </mxCell>
        <mxCell id="OfhyGZPmbudF-7aOh3mg-27" value="&lt;span style=&quot;font-family: &amp;#34;helvetica&amp;#34;&quot;&gt;&lt;b&gt;Integration Tests&lt;/b&gt;&lt;/span&gt;" style="text;whiteSpace=wrap;html=1;" vertex="1" parent="1">
          <mxGeometry x="550" y="-680.0000000000001" width="120" height="40" as="geometry" />
        </mxCell>
        <mxCell id="OfhyGZPmbudF-7aOh3mg-28" value="" style="endArrow=none;dashed=1;html=1;dashPattern=1 3;strokeWidth=2;entryX=0.75;entryY=0;entryDx=0;entryDy=0;" edge="1" parent="1" target="OfhyGZPmbudF-7aOh3mg-27">
          <mxGeometry width="50" height="50" relative="1" as="geometry">
            <mxPoint x="10" y="-680.0000000000001" as="sourcePoint" />
            <mxPoint x="570" y="-690" as="targetPoint" />
          </mxGeometry>
        </mxCell>
        <mxCell id="OfhyGZPmbudF-7aOh3mg-52" value="&lt;b&gt;GraphQL Server &quot;team&quot;&lt;/b&gt;" style="text;html=1;align=center;verticalAlign=middle;resizable=0;points=[];autosize=1;" vertex="1" parent="1">
          <mxGeometry x="720" y="-870" width="150" height="20" as="geometry" />
        </mxCell>
        <mxCell id="OfhyGZPmbudF-7aOh3mg-53" value="&lt;ul&gt;&lt;li&gt;GQL tests&lt;/li&gt;&lt;li&gt;mapping&lt;/li&gt;&lt;li&gt;proxy&lt;/li&gt;&lt;li&gt;Jenkins integration&lt;/li&gt;&lt;li&gt;Stateful app&lt;/li&gt;&lt;/ul&gt;" style="text;strokeColor=none;fillColor=none;html=1;whiteSpace=wrap;verticalAlign=middle;overflow=hidden;" vertex="1" parent="1">
          <mxGeometry x="705" y="-840" width="185" height="90" as="geometry" />
        </mxCell>
        <mxCell id="OfhyGZPmbudF-7aOh3mg-54" value="&lt;b&gt;Storefront API &quot;team&quot;&lt;/b&gt;" style="text;html=1;align=center;verticalAlign=middle;resizable=0;points=[];autosize=1;" vertex="1" parent="1">
          <mxGeometry x="722.5" y="-490" width="140" height="20" as="geometry" />
        </mxCell>
        <mxCell id="OfhyGZPmbudF-7aOh3mg-55" value="&lt;ul&gt;&lt;li&gt;&lt;span&gt;Export API&lt;/span&gt;&lt;/li&gt;&lt;li&gt;&lt;span&gt;Storefront API&lt;/span&gt;&lt;/li&gt;&lt;li&gt;&lt;span&gt;Message broker&lt;/span&gt;&lt;/li&gt;&lt;li&gt;Integration tests&lt;/li&gt;&lt;/ul&gt;" style="text;strokeColor=none;fillColor=none;html=1;whiteSpace=wrap;verticalAlign=middle;overflow=hidden;" vertex="1" parent="1">
          <mxGeometry x="702.5" y="-460" width="185" height="90" as="geometry" />
        </mxCell>
      </root>
    </mxGraphModel>
  </diagram>
</mxfile>
